<svg width="24" height="24" viewBox="0 0 24 24" fill="none" xmlns="http://www.w3.org/2000/svg">
<g clip-path="url(#clip0_2611_960)">
<path d="M12 22C17.523 22 22 17.523 22 12C22 6.477 17.523 2 12 2C6.477 2 2 6.477 2 12C2 17.523 6.477 22 12 22ZM12 24C5.373 24 0 18.627 0 12C0 5.373 5.373 0 12 0C18.627 0 24 5.373 24 12C24 18.627 18.627 24 12 24Z" fill="#6B7280"/>
<path d="M10 17L16 12L10 7V17Z" fill="#6B7280"/>
</g>
<defs>
<clipPath id="clip0_2611_960">
<rect width="24" height="24" fill="white"/>
</clipPath>
</defs>
</svg>
